<?xml version="1.0" encoding="UTF-8" standalone="no"?>
<svg
   width="500"
   zoomAndPan="magnify"
   viewBox="0 0 375 374.999991"
   height="500"
   preserveAspectRatio="xMidYMid meet"
   version="1.0"
   id="svg32"
   sodipodi:docname="euxxl.svg"
   inkscape:version="1.4.2 (ebf0e940, 2025-05-08)"
   xmlns:inkscape="http://www.inkscape.org/namespaces/inkscape"
   xmlns:sodipodi="http://sodipodi.sourceforge.net/DTD/sodipodi-0.dtd"
   xmlns="http://www.w3.org/2000/svg"
   xmlns:svg="http://www.w3.org/2000/svg">
  <sodipodi:namedview
     id="namedview32"
     pagecolor="#ffffff"
     bordercolor="#000000"
     borderopacity="0.25"
     inkscape:showpageshadow="2"
     inkscape:pageopacity="0.0"
     inkscape:pagecheckerboard="false"
     inkscape:deskcolor="#d1d1d1"
     inkscape:zoom="0.66469565"
     inkscape:cx="241.46389"
     inkscape:cy="249.73836"
     inkscape:window-width="1352"
     inkscape:window-height="787"
     inkscape:window-x="0"
     inkscape:window-y="35"
     inkscape:window-maximized="0"
     inkscape:current-layer="svg32" />
  <defs
     id="defs3">
    <g
       id="g1" />
    <clipPath
       id="a60d7fb7fd">
      <path
         d="M 0.878906 6 L 92 6 L 92 122 L 0.878906 122 Z M 0.878906 6 "
         clip-rule="nonzero"
         id="path1" />
    </clipPath>
    <clipPath
       id="3d2e902133">
      <path
         d="M 106 8 L 163.601562 8 L 163.601562 121 L 106 121 Z M 106 8 "
         clip-rule="nonzero"
         id="path2" />
    </clipPath>
    <clipPath
       id="bf21a393fb">
      <rect
         x="0"
         width="164"
         y="0"
         height="131"
         id="rect2" />
    </clipPath>
    <clipPath
       id="8d1598a998">
      <rect
         x="0"
         width="61"
         y="0"
         height="74"
         id="rect3" />
    </clipPath>
  </defs>
  <rect
     style="fill:#ffffff;stroke-width:66.5894;stroke-opacity:0.692029"
     id="rect32"
     width="375"
     height="375"
     x="0"
     y="0" />
  <g
     transform="matrix(1.2728643,0,0,1.2728643,79.669027,129.06824)"
     id="g24">
    <g
       clip-path="url(#bf21a393fb)"
       id="g23">
      <g
         clip-path="url(#a60d7fb7fd)"
         id="g6">
        <g
           fill="#ff66c4"
           fill-opacity="1"
           id="g5">
          <g
             transform="translate(15.326763,107.73789)"
             id="g4">
            <g
               id="g3">
              <path
                 d="M 55.539062,2.152344 C 54.8125,2.515625 53.65625,2.894531 52.074219,3.289062 51.175781,3.515625 50.035156,3.820312 48.652344,4.203125 L 43.867188,5.535156 C 42.164062,6.011719 40.503906,6.484375 38.878906,6.960938 37.253906,7.4375 35.730469,7.890625 34.308594,8.328125 33.082031,8.699219 32.179688,9.003906 31.59375,9.238281 L 20.648438,13.617188 19.765625,1.859375 C 19.519531,-1.4375 19.3125,-4.65625 19.148438,-7.792969 18.992188,-10.375 18.8125,-12.976562 18.613281,-15.601562 c -0.207031,-2.753907 -0.355469,-5.066407 -0.441406,-6.933594 l 8.636719,-0.390625 8,3.273437 c -0.757813,1.847656 -1.734375,4.136719 -2.9375,6.875 l -3.453125,7.878906 c -1.433594,3.113282 -2.882813,6.222657 -4.351563,9.328126 l -2.578125,5.4375 -39.945312,-3.523438 6.554687,-11.667969 c 4.058594,-7.222656 8.113282,-14.363281 12.171875,-21.421875 3.890625,-6.773437 7.476563,-13.863281 10.75,-21.265625 l 7.902344,3.492188 -8.566406,1.144531 C 9.878906,-46.949219 9.425781,-50.117188 8.988281,-52.882812 8.566406,-55.578125 8.085938,-58.234375 7.546875,-60.851562 6.996094,-63.527344 6.402344,-66.230469 5.773438,-68.949219 5.09375,-71.875 4.417969,-75.183594 3.746094,-78.878906 L 2.5,-85.75 l 36.488281,-15.05469 2.65625,24.039065 c 0.527344,4.617187 0.996094,8.882813 1.402344,12.792969 l -8.597656,0.894531 -7.851563,-3.613281 c 1.851563,-4.019532 3.679688,-8.042969 5.488282,-12.0625 1.859374,-4.128906 3.78125,-8.21875 5.761718,-12.265625 l 3.132813,-6.394531 35.445312,9.535156 -5.785156,9.789062 c -2.078125,3.515625 -3.953125,6.746094 -5.625,9.695313 -1.640625,2.886719 -3.199219,5.773437 -4.679687,8.660156 -1.515626,2.949219 -3.03125,5.960937 -4.550782,9.035156 -1.507812,3.058594 -3.140625,6.460938 -4.894531,10.207031 L 43.0625,-44.15625 51.625,-45.324219 c 0.460938,3.371094 0.996094,6.535157 1.601562,9.5 0.625,3.035157 1.304688,6.027344 2.042969,8.980469 l 2.308594,9.292969 L 61.75,-0.953125 Z M 47.808594,-13.3125 51.675781,-5.578125 43.292969,-3.472656 40.800781,-13.382812 38.5,-22.648438 c -0.800781,-3.195312 -1.535156,-6.425781 -2.207031,-9.699218 -0.683594,-3.34375 -1.28125,-6.890625 -1.792969,-10.640625 l -0.34375,-2.523438 1.078125,-2.308593 c 1.804687,-3.851563 3.488281,-7.363282 5.050781,-10.53125 1.558594,-3.15625 3.113282,-6.25 4.671875,-9.28125 1.589844,-3.097657 3.265625,-6.199219 5.023438,-9.292969 1.722656,-3.039063 3.648437,-6.355469 5.777343,-9.957031 l 7.441407,4.394531 -2.246094,8.347656 -17.589844,-4.730469 2.246094,-8.347656 7.761719,3.804688 c -1.898438,3.875 -3.738282,7.796874 -5.519532,11.753906 -1.828124,4.0625 -3.679687,8.128906 -5.550781,12.195312 L 29.121094,-30.8125 25.851562,-62.183594 c -0.398437,-3.851562 -0.863281,-8.078125 -1.386718,-12.679687 l -1.394532,-12.617188 8.589844,-0.949219 3.296875,7.988282 -19.410156,8.007812 -3.296875,-7.992187 8.503906,-1.542969 c 0.625,3.421875 1.242188,6.460938 1.859375,9.113281 0.664063,2.859375 1.285157,5.699219 1.863281,8.519531 0.59375,2.882813 1.125,5.808594 1.589844,8.769532 0.457032,2.898437 0.929688,6.199218 1.425782,9.90625 L 27.8125,-43.25 l -0.984375,2.226562 c -3.519531,7.960938 -7.375,15.589844 -11.570313,22.890626 C 11.226562,-11.125 7.199219,-4.03125 3.167969,3.140625 l -7.535157,-4.230469 0.761719,-8.613281 20.621094,1.820313 -0.761719,8.609374 -7.808594,-3.699218 c 1.4375,-3.042969 2.820313,-6 4.140626,-8.867188 l 3.457031,-7.890625 c 1.144531,-2.601562 2.066406,-4.757812 2.765625,-6.46875 l 16.632812,2.878907 c 0.07813,1.695312 0.214844,3.832031 0.410156,6.414062 0.207032,2.710938 0.390626,5.445312 0.558594,8.203125 0.15625,3.007813 0.355469,6.097656 0.59375,9.269531 L 28.386719,1.214844 25.175781,-6.8125 c 1.03125,-0.414062 2.394531,-0.878906 4.078125,-1.394531 1.488282,-0.453125 3.078125,-0.929688 4.769532,-1.421875 1.691406,-0.496094 3.425781,-0.992188 5.203124,-1.488282 l 4.796876,-1.335937 c 1.527343,-0.421875 2.8125,-0.765625 3.855468,-1.027344 0.394532,-0.09766 0.683594,-0.171875 0.875,-0.226562 l -0.0078,0.0039 c -0.296875,0.09766 -0.609375,0.230469 -0.9375,0.390625 z m 0,0"
                 id="path3" />
            </g>
          </g>
        </g>
      </g>
      <g
         fill="#ff66c4"
         fill-opacity="1"
         id="g9">
        <g
           transform="translate(65.181934,107.73789)"
           id="g8">
          <g
             id="g7">
            <path
               d="M 55.539062,2.152344 C 54.8125,2.515625 53.65625,2.894531 52.074219,3.289062 51.175781,3.515625 50.035156,3.820312 48.652344,4.203125 L 43.867188,5.535156 C 42.164062,6.011719 40.503906,6.484375 38.878906,6.960938 37.253906,7.4375 35.730469,7.890625 34.308594,8.328125 33.082031,8.699219 32.179688,9.003906 31.59375,9.238281 L 20.648438,13.617188 19.765625,1.859375 C 19.519531,-1.4375 19.3125,-4.65625 19.148438,-7.792969 18.992188,-10.375 18.8125,-12.976562 18.613281,-15.601562 c -0.207031,-2.753907 -0.355469,-5.066407 -0.441406,-6.933594 l 8.636719,-0.390625 8,3.273437 c -0.757813,1.847656 -1.734375,4.136719 -2.9375,6.875 l -3.453125,7.878906 c -1.433594,3.113282 -2.882813,6.222657 -4.351563,9.328126 l -2.578125,5.4375 -39.945312,-3.523438 6.554687,-11.667969 c 4.058594,-7.222656 8.113282,-14.363281 12.171875,-21.421875 3.890625,-6.773437 7.476563,-13.863281 10.75,-21.265625 l 7.902344,3.492188 -8.566406,1.144531 C 9.878906,-46.949219 9.425781,-50.117188 8.988281,-52.882812 8.566406,-55.578125 8.085938,-58.234375 7.546875,-60.851562 6.996094,-63.527344 6.402344,-66.230469 5.773438,-68.949219 5.09375,-71.875 4.417969,-75.183594 3.746094,-78.878906 L 2.5,-85.75 l 36.488281,-15.05469 2.65625,24.039065 c 0.527344,4.617187 0.996094,8.882813 1.402344,12.792969 l -8.597656,0.894531 -7.851563,-3.613281 c 1.851563,-4.019532 3.679688,-8.042969 5.488282,-12.0625 1.859374,-4.128906 3.78125,-8.21875 5.761718,-12.265625 l 3.132813,-6.394531 35.445312,9.535156 -5.785156,9.789062 c -2.078125,3.515625 -3.953125,6.746094 -5.625,9.695313 -1.640625,2.886719 -3.199219,5.773437 -4.679687,8.660156 -1.515626,2.949219 -3.03125,5.960937 -4.550782,9.035156 -1.507812,3.058594 -3.140625,6.460938 -4.894531,10.207031 L 43.0625,-44.15625 51.625,-45.324219 c 0.460938,3.371094 0.996094,6.535157 1.601562,9.5 0.625,3.035157 1.304688,6.027344 2.042969,8.980469 l 2.308594,9.292969 L 61.75,-0.953125 Z M 47.808594,-13.3125 51.675781,-5.578125 43.292969,-3.472656 40.800781,-13.382812 38.5,-22.648438 c -0.800781,-3.195312 -1.535156,-6.425781 -2.207031,-9.699218 -0.683594,-3.34375 -1.28125,-6.890625 -1.792969,-10.640625 l -0.34375,-2.523438 1.078125,-2.308593 c 1.804687,-3.851563 3.488281,-7.363282 5.050781,-10.53125 1.558594,-3.15625 3.113282,-6.25 4.671875,-9.28125 1.589844,-3.097657 3.265625,-6.199219 5.023438,-9.292969 1.722656,-3.039063 3.648437,-6.355469 5.777343,-9.957031 l 7.441407,4.394531 -2.246094,8.347656 -17.589844,-4.730469 2.246094,-8.347656 7.761719,3.804688 c -1.898438,3.875 -3.738282,7.796874 -5.519532,11.753906 -1.828124,4.0625 -3.679687,8.128906 -5.550781,12.195312 L 29.121094,-30.8125 25.851562,-62.183594 c -0.398437,-3.851562 -0.863281,-8.078125 -1.386718,-12.679687 l -1.394532,-12.617188 8.589844,-0.949219 3.296875,7.988282 -19.410156,8.007812 -3.296875,-7.992187 8.503906,-1.542969 c 0.625,3.421875 1.242188,6.460938 1.859375,9.113281 0.664063,2.859375 1.285157,5.699219 1.863281,8.519531 0.59375,2.882813 1.125,5.808594 1.589844,8.769532 0.457032,2.898437 0.929688,6.199218 1.425782,9.90625 L 27.8125,-43.25 l -0.984375,2.226562 c -3.519531,7.960938 -7.375,15.589844 -11.570313,22.890626 C 11.226562,-11.125 7.199219,-4.03125 3.167969,3.140625 l -7.535157,-4.230469 0.761719,-8.613281 20.621094,1.820313 -0.761719,8.609374 -7.808594,-3.699218 c 1.4375,-3.042969 2.820313,-6 4.140626,-8.867188 l 3.457031,-7.890625 c 1.144531,-2.601562 2.066406,-4.757812 2.765625,-6.46875 l 16.632812,2.878907 c 0.07813,1.695312 0.214844,3.832031 0.410156,6.414062 0.207032,2.710938 0.390626,5.445312 0.558594,8.203125 0.15625,3.007813 0.355469,6.097656 0.59375,9.269531 L 28.386719,1.214844 25.175781,-6.8125 c 1.03125,-0.414062 2.394531,-0.878906 4.078125,-1.394531 1.488282,-0.453125 3.078125,-0.929688 4.769532,-1.421875 1.691406,-0.496094 3.425781,-0.992188 5.203124,-1.488282 l 4.796876,-1.335937 c 1.527343,-0.421875 2.8125,-0.765625 3.855468,-1.027344 0.394532,-0.09766 0.683594,-0.171875 0.875,-0.226562 l -0.0078,0.0039 c -0.296875,0.09766 -0.609375,0.230469 -0.9375,0.390625 z m 0,0"
               id="path6" />
          </g>
        </g>
      </g>
      <g
         clip-path="url(#3d2e902133)"
         id="g13">
        <g
           fill="#ff66c4"
           fill-opacity="1"
           id="g12">
          <g
             transform="translate(115.03711,107.73789)"
             id="g11">
            <g
               id="g10">
              <path
                 d="m 33.480469,4.761719 c -2.339844,0 -4.824219,0.074219 -7.445313,0.226562 -2.628906,0.152344 -5.28125,0.382813 -7.949218,0.6875 -2.609376,0.296875 -5.15625,0.6875 -7.644532,1.171875 C 8.101562,7.300781 6.015625,7.832031 4.1875,8.441406 l -13.128906,4.378906 1.828125,-13.71875 c 0.492187,-3.675781 1.0625,-7.75 1.714843,-12.234374 0.660157,-4.539063 1.421876,-9.238282 2.285157,-14.097657 l 2.546875,-14.421875 c 0.859375,-4.914062 1.742187,-9.628906 2.644531,-14.144531 2.019531,-10.585937 4.164063,-21.398437 6.4375,-32.4375 l 1.242187,-6.023437 39.667969,-5.214844 -9.101562,39.546875 c -0.882813,3.777343 -1.765625,7.6875 -2.644531,11.726562 -0.882813,4.058594 -1.726563,8.015625 -2.53125,11.871094 -0.792969,3.800781 -1.503907,7.476563 -2.136719,11.03125 -0.628907,3.542969 -1.136719,6.683594 -1.527344,9.414063 l -8.558594,-1.222657 -0.6875,-8.613281 c 2.199219,-0.175781 4.542969,-0.285156 7.027344,-0.332031 2.355469,-0.03906 4.445313,-0.05859 6.277344,-0.05859 h 8.199219 l 0.429687,8.1875 c 0.07422,1.378906 0.183594,2.734375 0.328125,4.074219 0.144531,1.332031 0.300781,2.523437 0.476562,3.570312 0.21875,1.316406 0.398438,2.488282 0.53125,3.519532 0.05078,0.378906 0.09375,0.679687 0.128907,0.910156 L 45.625,-5.855469 48.308594,4.882812 H 37.242188 c -0.839844,0 -1.660157,-0.027343 -2.457032,-0.078124 C 34.371094,4.777344 33.933594,4.761719 33.480469,4.761719 Z m 0,-17.285157 c 0.839843,0 1.65625,0.02344 2.453125,0.07813 0.417968,0.02734 0.851562,0.04297 1.308594,0.04297 v 8.640625 l -8.386719,2.097657 C 28.695312,-2.308594 28.53125,-3.261719 28.367188,-4.523438 28.257812,-5.351562 28.113281,-6.320312 27.925781,-7.433594 27.695312,-8.8125 27.492188,-10.328125 27.3125,-11.988281 27.132812,-13.644531 27,-15.316406 26.910156,-17.011719 l 8.632813,-0.457031 v 8.644531 c -1.730469,0 -3.722657,0.019531 -5.976563,0.058594 -2.125,0.039063 -4.109375,0.128906 -5.949218,0.277344 L 12.839844,-7.625 l 1.53125,-10.699219 c 0.417968,-2.929687 0.957031,-6.261719 1.621094,-9.996093 0.664062,-3.722657 1.40625,-7.566407 2.234374,-11.53125 0.8125,-3.90625 1.667969,-7.917969 2.5625,-12.027344 0.898438,-4.125 1.796876,-8.101563 2.691407,-11.925782 l 6.308593,-27.414062 8.421876,1.9375 1.125,8.570312 -21.226563,2.789063 -1.125,-8.566406 8.464844,1.742187 c -2.257813,10.957032 -4.398438,21.738282 -6.421875,32.339844 -0.875,4.378906 -1.730469,8.964844 -2.570313,13.757812 L 13.90625,-24.203125 C 13.074219,-19.519531 12.339844,-15 11.707031,-10.644531 11.066406,-6.230469 10.503906,-2.21875 10.023438,1.386719 L 1.457031,0.242188 -1.277344,-7.957031 c 2.539063,-0.847657 5.347656,-1.570313 8.425782,-2.164063 2.929687,-0.570312 5.921874,-1.027344 8.972656,-1.378906 2.992187,-0.339844 5.960937,-0.597656 8.914062,-0.769531 2.957032,-0.167969 5.769532,-0.253907 8.445313,-0.253907 z m 0,0"
                 id="path9" />
            </g>
          </g>
        </g>
      </g>
      <g
         fill="#fcee21"
         fill-opacity="1"
         id="g16">
        <g
           transform="translate(15.326763,107.73789)"
           id="g15">
          <g
             id="g14">
            <path
               d="m 51.671875,-5.578125 c -0.15625,0.085937 -0.726563,0.246094 -1.703125,0.484375 -0.96875,0.242188 -2.183594,0.5625 -3.640625,0.96875 -1.449219,0.40625 -3.042969,0.855469 -4.78125,1.34375 -1.742187,0.480469 -3.4375,0.964844 -5.09375,1.453125 -1.65625,0.480469 -3.214844,0.945313 -4.671875,1.390625 -1.460938,0.445312 -2.589844,0.832031 -3.390625,1.15625 -0.25,-3.238281 -0.453125,-6.394531 -0.609375,-9.46875 -0.167969,-2.664062 -0.355469,-5.332031 -0.5625,-8 -0.199219,-2.664062 -0.335938,-4.890625 -0.40625,-6.671875 -0.730469,1.78125 -1.683594,4.007813 -2.859375,6.671875 -1.167969,2.667969 -2.320313,5.292969 -3.453125,7.875 -1.375,3 -2.792969,6.039062 -4.25,9.109375 L -4.359375,-1.09375 c 4.042969,-7.195312 8.082031,-14.3125 12.125,-21.34375 4.039063,-7.039062 7.757813,-14.398438 11.15625,-22.078125 -0.492187,-3.632813 -0.960937,-6.867187 -1.40625,-9.703125 -0.4375,-2.832031 -0.945313,-5.625 -1.515625,-8.375 -0.5625,-2.75 -1.167969,-5.515625 -1.8125,-8.296875 -0.648438,-2.789063 -1.292969,-5.96875 -1.9375,-9.53125 l 19.40625,-8 c 0.40625,3.804687 0.867188,8.011719 1.390625,12.625 0.53125,4.605469 1,8.84375 1.40625,12.71875 1.851563,-4.039063 3.691406,-8.082031 5.515625,-12.125 1.820312,-4.039063 3.703125,-8.046875 5.640625,-12.015625 l 17.59375,4.734375 c -2.105469,3.5625 -4.007813,6.839844 -5.703125,9.828125 -1.699219,2.992188 -3.320312,5.984375 -4.859375,8.984375 -1.53125,2.992187 -3.070313,6.042969 -4.609375,9.15625 -1.53125,3.105469 -3.1875,6.558594 -4.96875,10.359375 0.476562,3.5625 1.039062,6.921875 1.6875,10.078125 0.65625,3.148437 1.363281,6.257813 2.125,9.328125 0.769531,3.074219 1.539062,6.167969 2.3125,9.28125 0.769531,3.117188 1.597656,6.414062 2.484375,9.890625 z m 0,0"
               id="path13" />
          </g>
        </g>
      </g>
      <g
         fill="#fcee21"
         fill-opacity="1"
         id="g19">
        <g
           transform="translate(65.181934,107.73789)"
           id="g18">
          <g
             id="g17">
            <path
               d="m 51.671875,-5.578125 c -0.15625,0.085937 -0.726563,0.246094 -1.703125,0.484375 -0.96875,0.242188 -2.183594,0.5625 -3.640625,0.96875 -1.449219,0.40625 -3.042969,0.855469 -4.78125,1.34375 -1.742187,0.480469 -3.4375,0.964844 -5.09375,1.453125 -1.65625,0.480469 -3.214844,0.945313 -4.671875,1.390625 -1.460938,0.445312 -2.589844,0.832031 -3.390625,1.15625 -0.25,-3.238281 -0.453125,-6.394531 -0.609375,-9.46875 -0.167969,-2.664062 -0.355469,-5.332031 -0.5625,-8 -0.199219,-2.664062 -0.335938,-4.890625 -0.40625,-6.671875 -0.730469,1.78125 -1.683594,4.007813 -2.859375,6.671875 -1.167969,2.667969 -2.320313,5.292969 -3.453125,7.875 -1.375,3 -2.792969,6.039062 -4.25,9.109375 L -4.359375,-1.09375 c 4.042969,-7.195312 8.082031,-14.3125 12.125,-21.34375 4.039063,-7.039062 7.757813,-14.398438 11.15625,-22.078125 -0.492187,-3.632813 -0.960937,-6.867187 -1.40625,-9.703125 -0.4375,-2.832031 -0.945313,-5.625 -1.515625,-8.375 -0.5625,-2.75 -1.167969,-5.515625 -1.8125,-8.296875 -0.648438,-2.789063 -1.292969,-5.96875 -1.9375,-9.53125 l 19.40625,-8 c 0.40625,3.804687 0.867188,8.011719 1.390625,12.625 0.53125,4.605469 1,8.84375 1.40625,12.71875 1.851563,-4.039063 3.691406,-8.082031 5.515625,-12.125 1.820312,-4.039063 3.703125,-8.046875 5.640625,-12.015625 l 17.59375,4.734375 c -2.105469,3.5625 -4.007813,6.839844 -5.703125,9.828125 -1.699219,2.992188 -3.320312,5.984375 -4.859375,8.984375 -1.53125,2.992187 -3.070313,6.042969 -4.609375,9.15625 -1.53125,3.105469 -3.1875,6.558594 -4.96875,10.359375 0.476562,3.5625 1.039062,6.921875 1.6875,10.078125 0.65625,3.148437 1.363281,6.257813 2.125,9.328125 0.769531,3.074219 1.539062,6.167969 2.3125,9.28125 0.769531,3.117188 1.597656,6.414062 2.484375,9.890625 z m 0,0"
               id="path16" />
          </g>
        </g>
      </g>
      <g
         fill="#fcee21"
         fill-opacity="1"
         id="g22">
        <g
           transform="translate(115.03711,107.73789)"
           id="g21">
          <g
             id="g20">
            <path
               d="m 33.484375,-3.875 c -2.511719,0 -5.164063,0.085938 -7.953125,0.25 -2.792969,0.15625 -5.605469,0.398438 -8.4375,0.71875 -2.824219,0.324219 -5.589844,0.75 -8.296875,1.28125 -2.710937,0.523438 -5.15625,1.148438 -7.34375,1.875 0.488281,-3.644531 1.054687,-7.691406 1.703125,-12.140625 0.644531,-4.445313 1.390625,-9.054687 2.234375,-13.828125 0.851563,-4.769531 1.703125,-9.578125 2.546875,-14.421875 0.851562,-4.851563 1.722656,-9.503906 2.609375,-13.953125 2.019531,-10.59375 4.164063,-21.390625 6.4375,-32.390625 l 21.21875,-2.796875 c -2.179687,9.386719 -4.277344,18.527344 -6.296875,27.421875 -0.898438,3.804687 -1.792969,7.746094 -2.6875,11.828125 -0.886719,4.085938 -1.734375,8.070312 -2.546875,11.953125 -0.804687,3.875 -1.527344,7.636719 -2.171875,11.28125 -0.648438,3.636719 -1.171875,6.867187 -1.578125,9.6875 2.019531,-0.15625 4.179687,-0.253906 6.484375,-0.296875 2.3125,-0.03906 4.359375,-0.0625 6.140625,-0.0625 0.07031,1.542969 0.1875,3.0625 0.34375,4.5625 0.164063,1.492188 0.347656,2.84375 0.546875,4.0625 0.207031,1.210938 0.367188,2.277344 0.484375,3.203125 0.125,0.929687 0.226563,1.554687 0.3125,1.875 -0.648437,0 -1.273437,-0.015625 -1.875,-0.046875 -0.605469,-0.039062 -1.230469,-0.0625 -1.875,-0.0625 z m 0,0"
               id="path19" />
          </g>
        </g>
      </g>
    </g>
  </g>
  <g
     transform="matrix(1.2728643,0,0,1.2728643,161.13234,75.607948)"
     id="g32">
    <g
       clip-path="url(#8d1598a998)"
       id="g31">
      <g
         fill="#000000"
         fill-opacity="1"
         id="g27">
        <g
           transform="translate(0.660711,60.948105)"
           id="g26">
          <g
             id="g25">
            <path
               d="m 0.546875,0.0625 9,-48.796875 21.6875,-1.859375 c -0.324219,1.011719 -0.601563,2.042969 -0.828125,3.09375 -0.230469,0.875 -0.449219,1.78125 -0.65625,2.71875 -0.199219,0.9375 -0.371094,1.773438 -0.515625,2.5 -0.460937,0.04297 -1.109375,0.07813 -1.953125,0.109375 -0.84375,0.02344 -1.75,0.04297 -2.71875,0.0625 -0.960938,0.02344 -1.929688,0.03125 -2.90625,0.03125 -0.980469,0 -1.839844,0 -2.578125,0 l -2.390625,12.28125 c 1.414062,-0.08203 2.738281,-0.148437 3.96875,-0.203125 1.007812,-0.03906 2.039062,-0.0625 3.09375,-0.0625 1.050781,0 1.828125,-0.02344 2.328125,-0.07813 -0.179687,1.28125 -0.351563,2.542969 -0.515625,3.78125 -0.15625,1.242187 -0.351562,2.5 -0.578125,3.78125 -0.460937,0.04297 -1.203125,0.07422 -2.234375,0.09375 -1.03125,0.02344 -2.074219,0.05859 -3.125,0.109375 -1.1875,0.04297 -2.492188,0.08984 -3.90625,0.140625 l -2.328125,12.625 10.015625,-1.578125 -0.6875,7.828125 z m 0,0"
               id="path24" />
          </g>
        </g>
      </g>
      <g
         fill="#000000"
         fill-opacity="1"
         id="g30">
        <g
           transform="translate(24.067577,60.948105)"
           id="g29">
          <g
             id="g28">
            <path
               d="m 28.546875,-13.390625 c -0.636719,2.617187 -1.539063,4.839844 -2.703125,6.671875 -1.167969,1.824219 -2.542969,3.335938 -4.125,4.53125 -1.574219,1.1875 -3.257812,2.054688 -5.046875,2.59375 -1.78125,0.550781 -3.5625,0.828125 -5.34375,0.828125 C 10.273438,1.234375 9.195312,1.0625 8.09375,0.71875 7,0.375 6.015625,-0.140625 5.140625,-0.828125 4.273438,-1.515625 3.554688,-2.382812 2.984375,-3.4375 2.410156,-4.488281 2.125,-5.722656 2.125,-7.140625 c 0,-0.175781 0,-0.359375 0,-0.546875 0,-0.1875 0.023438,-0.367188 0.078125,-0.546875 0.175781,-1.875 0.46875,-4.140625 0.875,-6.796875 0.414063,-2.65625 0.851563,-5.421875 1.3125,-8.296875 0.457031,-2.882813 0.960937,-5.78125 1.515625,-8.6875 0.550781,-2.90625 1.039062,-5.546875 1.46875,-7.921875 0.4375,-2.382812 0.8125,-4.363281 1.125,-5.9375 0.320312,-1.582031 0.53125,-2.554688 0.625,-2.921875 0.96875,-0.09375 2.113281,-0.207031 3.4375,-0.34375 1.320312,-0.144531 2.554688,-0.257813 3.703125,-0.34375 1.414063,-0.144531 2.8125,-0.285156 4.1875,-0.421875 -1.1875,5.542969 -2.242187,10.554688 -3.15625,15.03125 -0.40625,1.929688 -0.808594,3.855469 -1.203125,5.78125 -0.386719,1.917969 -0.75,3.679688 -1.09375,5.28125 -0.34375,1.59375 -0.640625,2.976562 -0.890625,4.140625 -0.25,1.167969 -0.460937,2.121094 -0.625,2.859375 -0.15625,0.730469 -0.339844,1.65625 -0.546875,2.78125 -0.210938,1.117188 -0.3125,2.132812 -0.3125,3.046875 0,0.730469 0.179688,1.339844 0.546875,1.828125 0.375,0.480469 0.832031,0.71875 1.375,0.71875 0.78125,0 1.421875,-0.304688 1.921875,-0.921875 0.507812,-0.625 0.9375,-1.367187 1.28125,-2.234375 0.34375,-0.875 0.59375,-1.753906 0.75,-2.640625 0.15625,-0.894531 0.300781,-1.597656 0.4375,-2.109375 0.28125,-1.320312 0.59375,-2.796875 0.9375,-4.421875 0.34375,-1.625 0.6875,-3.316406 1.03125,-5.078125 0.34375,-1.757812 0.6875,-3.554688 1.03125,-5.390625 0.34375,-1.832031 0.671875,-3.613281 0.984375,-5.34375 0.78125,-4.03125 1.535156,-8.195313 2.265625,-12.5 l 10.4375,-0.6875 c 0,0 -0.117188,0.601563 -0.34375,1.796875 -0.230469,1.1875 -0.527344,2.765625 -0.890625,4.734375 -0.367187,1.960937 -0.765625,4.199219 -1.203125,6.71875 -0.4375,2.523437 -0.933594,5.140625 -1.484375,7.859375 -0.542969,2.71875 -1.078125,5.398438 -1.609375,8.03125 -0.523438,2.625 -1.039062,5.039062 -1.546875,7.234375 z m 0,0"
               id="path27" />
          </g>
        </g>
      </g>
    </g>
  </g>
</svg>
