<?xml version="1.0" encoding="UTF-8" standalone="no"?>
<svg
   width="500"
   zoomAndPan="magnify"
   viewBox="0 0 375 374.999991"
   height="500"
   preserveAspectRatio="xMidYMid meet"
   version="1.0"
   id="svg41"
   sodipodi:docname="wxxl.svg"
   inkscape:version="1.4.2 (ebf0e940, 2025-05-08)"
   xmlns:inkscape="http://www.inkscape.org/namespaces/inkscape"
   xmlns:sodipodi="http://sodipodi.sourceforge.net/DTD/sodipodi-0.dtd"
   xmlns="http://www.w3.org/2000/svg"
   xmlns:svg="http://www.w3.org/2000/svg">
  <sodipodi:namedview
     id="namedview41"
     pagecolor="#ffffff"
     bordercolor="#000000"
     borderopacity="0.25"
     inkscape:showpageshadow="2"
     inkscape:pageopacity="0.0"
     inkscape:pagecheckerboard="0"
     inkscape:deskcolor="#d1d1d1"
     showgrid="false"
     inkscape:zoom="0.88283281"
     inkscape:cx="79.85657"
     inkscape:cy="244.66694"
     inkscape:window-width="1352"
     inkscape:window-height="815"
     inkscape:window-x="0"
     inkscape:window-y="35"
     inkscape:window-maximized="0"
     inkscape:current-layer="svg41" />
  <defs
     id="defs3">
    <g
       id="g1" />
    <clipPath
       id="baf6e88667">
      <path
         d="M 0.878906 6 L 92 6 L 92 122 L 0.878906 122 Z M 0.878906 6 "
         clip-rule="nonzero"
         id="path1" />
    </clipPath>
    <clipPath
       id="26de00a8dc">
      <path
         d="M 106 8 L 163.601562 8 L 163.601562 121 L 106 121 Z M 106 8 "
         clip-rule="nonzero"
         id="path2" />
    </clipPath>
    <clipPath
       id="63652e50af">
      <rect
         x="0"
         width="164"
         y="0"
         height="131"
         id="rect2" />
    </clipPath>
    <clipPath
       id="81c604eb43">
      <rect
         x="0"
         width="163"
         y="0"
         height="74"
         id="rect3" />
    </clipPath>
  </defs>
  <rect
     style="fill:#ffffff;stroke-width:61.5477;stroke-opacity:0.692029"
     id="rect1"
     width="375"
     height="375"
     x="0"
     y="0" />
  <g
     transform="matrix(1.2872086,0,0,1.2872086,76.193917,130.16758)"
     id="g24">
    <g
       clip-path="url(#63652e50af)"
       id="g23">
      <g
         clip-path="url(#baf6e88667)"
         id="g6">
        <g
           fill="#ff66c4"
           fill-opacity="1"
           id="g5">
          <g
             transform="translate(15.326763,107.73789)"
             id="g4">
            <g
               id="g3">
              <path
                 d="M 55.539062,2.152344 C 54.8125,2.515625 53.65625,2.894531 52.074219,3.289062 51.175781,3.515625 50.035156,3.820312 48.652344,4.203125 L 43.867188,5.535156 C 42.164062,6.011719 40.503906,6.484375 38.878906,6.960938 37.253906,7.4375 35.730469,7.890625 34.308594,8.328125 33.082031,8.699219 32.179688,9.003906 31.59375,9.238281 L 20.648438,13.617188 19.765625,1.859375 C 19.519531,-1.4375 19.3125,-4.65625 19.148438,-7.792969 18.992188,-10.375 18.8125,-12.976562 18.613281,-15.601562 c -0.207031,-2.753907 -0.355469,-5.066407 -0.441406,-6.933594 l 8.636719,-0.390625 8,3.273437 c -0.757813,1.847656 -1.734375,4.136719 -2.9375,6.875 l -3.453125,7.878906 c -1.433594,3.113282 -2.882813,6.222657 -4.351563,9.328126 l -2.578125,5.4375 -39.945312,-3.523438 6.554687,-11.667969 c 4.058594,-7.222656 8.113282,-14.363281 12.171875,-21.421875 3.890625,-6.773437 7.476563,-13.863281 10.75,-21.265625 l 7.902344,3.492188 -8.566406,1.144531 C 9.878906,-46.949219 9.425781,-50.117188 8.988281,-52.882812 8.566406,-55.578125 8.085938,-58.234375 7.546875,-60.851562 6.996094,-63.527344 6.402344,-66.230469 5.773438,-68.949219 5.09375,-71.875 4.417969,-75.183594 3.746094,-78.878906 L 2.5,-85.75 l 36.488281,-15.05469 2.65625,24.039065 c 0.527344,4.617187 0.996094,8.882813 1.402344,12.792969 l -8.597656,0.894531 -7.851563,-3.613281 c 1.851563,-4.019532 3.679688,-8.042969 5.488282,-12.0625 1.859374,-4.128906 3.78125,-8.21875 5.761718,-12.265625 l 3.132813,-6.394531 35.445312,9.535156 -5.785156,9.789062 c -2.078125,3.515625 -3.953125,6.746094 -5.625,9.695313 -1.640625,2.886719 -3.199219,5.773437 -4.679687,8.660156 -1.515626,2.949219 -3.03125,5.960937 -4.550782,9.035156 -1.507812,3.058594 -3.140625,6.460938 -4.894531,10.207031 L 43.0625,-44.15625 51.625,-45.324219 c 0.460938,3.371094 0.996094,6.535157 1.601562,9.5 0.625,3.035157 1.304688,6.027344 2.042969,8.980469 l 2.308594,9.292969 L 61.75,-0.953125 Z M 47.808594,-13.3125 51.675781,-5.578125 43.292969,-3.472656 40.800781,-13.382812 38.5,-22.648438 c -0.800781,-3.195312 -1.535156,-6.425781 -2.207031,-9.699218 -0.683594,-3.34375 -1.28125,-6.890625 -1.792969,-10.640625 l -0.34375,-2.523438 1.078125,-2.308593 c 1.804687,-3.851563 3.488281,-7.363282 5.050781,-10.53125 1.558594,-3.15625 3.113282,-6.25 4.671875,-9.28125 1.589844,-3.097657 3.265625,-6.199219 5.023438,-9.292969 1.722656,-3.039063 3.648437,-6.355469 5.777343,-9.957031 l 7.441407,4.394531 -2.246094,8.347656 -17.589844,-4.730469 2.246094,-8.347656 7.761719,3.804688 c -1.898438,3.875 -3.738282,7.796874 -5.519532,11.753906 -1.828124,4.0625 -3.679687,8.128906 -5.550781,12.195312 L 29.121094,-30.8125 25.851562,-62.183594 c -0.398437,-3.851562 -0.863281,-8.078125 -1.386718,-12.679687 l -1.394532,-12.617188 8.589844,-0.949219 3.296875,7.988282 -19.410156,8.007812 -3.296875,-7.992187 8.503906,-1.542969 c 0.625,3.421875 1.242188,6.460938 1.859375,9.113281 0.664063,2.859375 1.285157,5.699219 1.863281,8.519531 0.59375,2.882813 1.125,5.808594 1.589844,8.769532 0.457032,2.898437 0.929688,6.199218 1.425782,9.90625 L 27.8125,-43.25 l -0.984375,2.226562 c -3.519531,7.960938 -7.375,15.589844 -11.570313,22.890626 C 11.226562,-11.125 7.199219,-4.03125 3.167969,3.140625 l -7.535157,-4.230469 0.761719,-8.613281 20.621094,1.820313 -0.761719,8.609374 -7.808594,-3.699218 c 1.4375,-3.042969 2.820313,-6 4.140626,-8.867188 l 3.457031,-7.890625 c 1.144531,-2.601562 2.066406,-4.757812 2.765625,-6.46875 l 16.632812,2.878907 c 0.07813,1.695312 0.214844,3.832031 0.410156,6.414062 0.207032,2.710938 0.390626,5.445312 0.558594,8.203125 0.15625,3.007813 0.355469,6.097656 0.59375,9.269531 L 28.386719,1.214844 25.175781,-6.8125 c 1.03125,-0.414062 2.394531,-0.878906 4.078125,-1.394531 1.488282,-0.453125 3.078125,-0.929688 4.769532,-1.421875 1.691406,-0.496094 3.425781,-0.992188 5.203124,-1.488282 l 4.796876,-1.335937 c 1.527343,-0.421875 2.8125,-0.765625 3.855468,-1.027344 0.394532,-0.09766 0.683594,-0.171875 0.875,-0.226562 l -0.0078,0.0039 c -0.296875,0.09766 -0.609375,0.230469 -0.9375,0.390625 z m 0,0"
                 id="path3" />
            </g>
          </g>
        </g>
      </g>
      <g
         fill="#ff66c4"
         fill-opacity="1"
         id="g9">
        <g
           transform="translate(65.181934,107.73789)"
           id="g8">
          <g
             id="g7">
            <path
               d="M 55.539062,2.152344 C 54.8125,2.515625 53.65625,2.894531 52.074219,3.289062 51.175781,3.515625 50.035156,3.820312 48.652344,4.203125 L 43.867188,5.535156 C 42.164062,6.011719 40.503906,6.484375 38.878906,6.960938 37.253906,7.4375 35.730469,7.890625 34.308594,8.328125 33.082031,8.699219 32.179688,9.003906 31.59375,9.238281 L 20.648438,13.617188 19.765625,1.859375 C 19.519531,-1.4375 19.3125,-4.65625 19.148438,-7.792969 18.992188,-10.375 18.8125,-12.976562 18.613281,-15.601562 c -0.207031,-2.753907 -0.355469,-5.066407 -0.441406,-6.933594 l 8.636719,-0.390625 8,3.273437 c -0.757813,1.847656 -1.734375,4.136719 -2.9375,6.875 l -3.453125,7.878906 c -1.433594,3.113282 -2.882813,6.222657 -4.351563,9.328126 l -2.578125,5.4375 -39.945312,-3.523438 6.554687,-11.667969 c 4.058594,-7.222656 8.113282,-14.363281 12.171875,-21.421875 3.890625,-6.773437 7.476563,-13.863281 10.75,-21.265625 l 7.902344,3.492188 -8.566406,1.144531 C 9.878906,-46.949219 9.425781,-50.117188 8.988281,-52.882812 8.566406,-55.578125 8.085938,-58.234375 7.546875,-60.851562 6.996094,-63.527344 6.402344,-66.230469 5.773438,-68.949219 5.09375,-71.875 4.417969,-75.183594 3.746094,-78.878906 L 2.5,-85.75 l 36.488281,-15.05469 2.65625,24.039065 c 0.527344,4.617187 0.996094,8.882813 1.402344,12.792969 l -8.597656,0.894531 -7.851563,-3.613281 c 1.851563,-4.019532 3.679688,-8.042969 5.488282,-12.0625 1.859374,-4.128906 3.78125,-8.21875 5.761718,-12.265625 l 3.132813,-6.394531 35.445312,9.535156 -5.785156,9.789062 c -2.078125,3.515625 -3.953125,6.746094 -5.625,9.695313 -1.640625,2.886719 -3.199219,5.773437 -4.679687,8.660156 -1.515626,2.949219 -3.03125,5.960937 -4.550782,9.035156 -1.507812,3.058594 -3.140625,6.460938 -4.894531,10.207031 L 43.0625,-44.15625 51.625,-45.324219 c 0.460938,3.371094 0.996094,6.535157 1.601562,9.5 0.625,3.035157 1.304688,6.027344 2.042969,8.980469 l 2.308594,9.292969 L 61.75,-0.953125 Z M 47.808594,-13.3125 51.675781,-5.578125 43.292969,-3.472656 40.800781,-13.382812 38.5,-22.648438 c -0.800781,-3.195312 -1.535156,-6.425781 -2.207031,-9.699218 -0.683594,-3.34375 -1.28125,-6.890625 -1.792969,-10.640625 l -0.34375,-2.523438 1.078125,-2.308593 c 1.804687,-3.851563 3.488281,-7.363282 5.050781,-10.53125 1.558594,-3.15625 3.113282,-6.25 4.671875,-9.28125 1.589844,-3.097657 3.265625,-6.199219 5.023438,-9.292969 1.722656,-3.039063 3.648437,-6.355469 5.777343,-9.957031 l 7.441407,4.394531 -2.246094,8.347656 -17.589844,-4.730469 2.246094,-8.347656 7.761719,3.804688 c -1.898438,3.875 -3.738282,7.796874 -5.519532,11.753906 -1.828124,4.0625 -3.679687,8.128906 -5.550781,12.195312 L 29.121094,-30.8125 25.851562,-62.183594 c -0.398437,-3.851562 -0.863281,-8.078125 -1.386718,-12.679687 l -1.394532,-12.617188 8.589844,-0.949219 3.296875,7.988282 -19.410156,8.007812 -3.296875,-7.992187 8.503906,-1.542969 c 0.625,3.421875 1.242188,6.460938 1.859375,9.113281 0.664063,2.859375 1.285157,5.699219 1.863281,8.519531 0.59375,2.882813 1.125,5.808594 1.589844,8.769532 0.457032,2.898437 0.929688,6.199218 1.425782,9.90625 L 27.8125,-43.25 l -0.984375,2.226562 c -3.519531,7.960938 -7.375,15.589844 -11.570313,22.890626 C 11.226562,-11.125 7.199219,-4.03125 3.167969,3.140625 l -7.535157,-4.230469 0.761719,-8.613281 20.621094,1.820313 -0.761719,8.609374 -7.808594,-3.699218 c 1.4375,-3.042969 2.820313,-6 4.140626,-8.867188 l 3.457031,-7.890625 c 1.144531,-2.601562 2.066406,-4.757812 2.765625,-6.46875 l 16.632812,2.878907 c 0.07813,1.695312 0.214844,3.832031 0.410156,6.414062 0.207032,2.710938 0.390626,5.445312 0.558594,8.203125 0.15625,3.007813 0.355469,6.097656 0.59375,9.269531 L 28.386719,1.214844 25.175781,-6.8125 c 1.03125,-0.414062 2.394531,-0.878906 4.078125,-1.394531 1.488282,-0.453125 3.078125,-0.929688 4.769532,-1.421875 1.691406,-0.496094 3.425781,-0.992188 5.203124,-1.488282 l 4.796876,-1.335937 c 1.527343,-0.421875 2.8125,-0.765625 3.855468,-1.027344 0.394532,-0.09766 0.683594,-0.171875 0.875,-0.226562 l -0.0078,0.0039 c -0.296875,0.09766 -0.609375,0.230469 -0.9375,0.390625 z m 0,0"
               id="path6" />
          </g>
        </g>
      </g>
      <g
         clip-path="url(#26de00a8dc)"
         id="g13">
        <g
           fill="#ff66c4"
           fill-opacity="1"
           id="g12">
          <g
             transform="translate(115.03711,107.73789)"
             id="g11">
            <g
               id="g10">
              <path
                 d="m 33.480469,4.761719 c -2.339844,0 -4.824219,0.074219 -7.445313,0.226562 -2.628906,0.152344 -5.28125,0.382813 -7.949218,0.6875 -2.609376,0.296875 -5.15625,0.6875 -7.644532,1.171875 C 8.101562,7.300781 6.015625,7.832031 4.1875,8.441406 l -13.128906,4.378906 1.828125,-13.71875 c 0.492187,-3.675781 1.0625,-7.75 1.714843,-12.234374 0.660157,-4.539063 1.421876,-9.238282 2.285157,-14.097657 l 2.546875,-14.421875 c 0.859375,-4.914062 1.742187,-9.628906 2.644531,-14.144531 2.019531,-10.585937 4.164063,-21.398437 6.4375,-32.4375 l 1.242187,-6.023437 39.667969,-5.214844 -9.101562,39.546875 c -0.882813,3.777343 -1.765625,7.6875 -2.644531,11.726562 -0.882813,4.058594 -1.726563,8.015625 -2.53125,11.871094 -0.792969,3.800781 -1.503907,7.476563 -2.136719,11.03125 -0.628907,3.542969 -1.136719,6.683594 -1.527344,9.414063 l -8.558594,-1.222657 -0.6875,-8.613281 c 2.199219,-0.175781 4.542969,-0.285156 7.027344,-0.332031 2.355469,-0.03906 4.445313,-0.05859 6.277344,-0.05859 h 8.199219 l 0.429687,8.1875 c 0.07422,1.378906 0.183594,2.734375 0.328125,4.074219 0.144531,1.332031 0.300781,2.523437 0.476562,3.570312 0.21875,1.316406 0.398438,2.488282 0.53125,3.519532 0.05078,0.378906 0.09375,0.679687 0.128907,0.910156 L 45.625,-5.855469 48.308594,4.882812 H 37.242188 c -0.839844,0 -1.660157,-0.027343 -2.457032,-0.078124 C 34.371094,4.777344 33.933594,4.761719 33.480469,4.761719 Z m 0,-17.285157 c 0.839843,0 1.65625,0.02344 2.453125,0.07813 0.417968,0.02734 0.851562,0.04297 1.308594,0.04297 v 8.640625 l -8.386719,2.097657 C 28.695312,-2.308594 28.53125,-3.261719 28.367188,-4.523438 28.257812,-5.351562 28.113281,-6.320312 27.925781,-7.433594 27.695312,-8.8125 27.492188,-10.328125 27.3125,-11.988281 27.132812,-13.644531 27,-15.316406 26.910156,-17.011719 l 8.632813,-0.457031 v 8.644531 c -1.730469,0 -3.722657,0.019531 -5.976563,0.058594 -2.125,0.039063 -4.109375,0.128906 -5.949218,0.277344 L 12.839844,-7.625 l 1.53125,-10.699219 c 0.417968,-2.929687 0.957031,-6.261719 1.621094,-9.996093 0.664062,-3.722657 1.40625,-7.566407 2.234374,-11.53125 0.8125,-3.90625 1.667969,-7.917969 2.5625,-12.027344 0.898438,-4.125 1.796876,-8.101563 2.691407,-11.925782 l 6.308593,-27.414062 8.421876,1.9375 1.125,8.570312 -21.226563,2.789063 -1.125,-8.566406 8.464844,1.742187 c -2.257813,10.957032 -4.398438,21.738282 -6.421875,32.339844 -0.875,4.378906 -1.730469,8.964844 -2.570313,13.757812 L 13.90625,-24.203125 C 13.074219,-19.519531 12.339844,-15 11.707031,-10.644531 11.066406,-6.230469 10.503906,-2.21875 10.023438,1.386719 L 1.457031,0.242188 -1.277344,-7.957031 c 2.539063,-0.847657 5.347656,-1.570313 8.425782,-2.164063 2.929687,-0.570312 5.921874,-1.027344 8.972656,-1.378906 2.992187,-0.339844 5.960937,-0.597656 8.914062,-0.769531 2.957032,-0.167969 5.769532,-0.253907 8.445313,-0.253907 z m 0,0"
                 id="path9" />
            </g>
          </g>
        </g>
      </g>
      <g
         fill="#fcee21"
         fill-opacity="1"
         id="g16">
        <g
           transform="translate(15.326763,107.73789)"
           id="g15">
          <g
             id="g14">
            <path
               d="m 51.671875,-5.578125 c -0.15625,0.085937 -0.726563,0.246094 -1.703125,0.484375 -0.96875,0.242188 -2.183594,0.5625 -3.640625,0.96875 -1.449219,0.40625 -3.042969,0.855469 -4.78125,1.34375 -1.742187,0.480469 -3.4375,0.964844 -5.09375,1.453125 -1.65625,0.480469 -3.214844,0.945313 -4.671875,1.390625 -1.460938,0.445312 -2.589844,0.832031 -3.390625,1.15625 -0.25,-3.238281 -0.453125,-6.394531 -0.609375,-9.46875 -0.167969,-2.664062 -0.355469,-5.332031 -0.5625,-8 -0.199219,-2.664062 -0.335938,-4.890625 -0.40625,-6.671875 -0.730469,1.78125 -1.683594,4.007813 -2.859375,6.671875 -1.167969,2.667969 -2.320313,5.292969 -3.453125,7.875 -1.375,3 -2.792969,6.039062 -4.25,9.109375 L -4.359375,-1.09375 c 4.042969,-7.195312 8.082031,-14.3125 12.125,-21.34375 4.039063,-7.039062 7.757813,-14.398438 11.15625,-22.078125 -0.492187,-3.632813 -0.960937,-6.867187 -1.40625,-9.703125 -0.4375,-2.832031 -0.945313,-5.625 -1.515625,-8.375 -0.5625,-2.75 -1.167969,-5.515625 -1.8125,-8.296875 -0.648438,-2.789063 -1.292969,-5.96875 -1.9375,-9.53125 l 19.40625,-8 c 0.40625,3.804687 0.867188,8.011719 1.390625,12.625 0.53125,4.605469 1,8.84375 1.40625,12.71875 1.851563,-4.039063 3.691406,-8.082031 5.515625,-12.125 1.820312,-4.039063 3.703125,-8.046875 5.640625,-12.015625 l 17.59375,4.734375 c -2.105469,3.5625 -4.007813,6.839844 -5.703125,9.828125 -1.699219,2.992188 -3.320312,5.984375 -4.859375,8.984375 -1.53125,2.992187 -3.070313,6.042969 -4.609375,9.15625 -1.53125,3.105469 -3.1875,6.558594 -4.96875,10.359375 0.476562,3.5625 1.039062,6.921875 1.6875,10.078125 0.65625,3.148437 1.363281,6.257813 2.125,9.328125 0.769531,3.074219 1.539062,6.167969 2.3125,9.28125 0.769531,3.117188 1.597656,6.414062 2.484375,9.890625 z m 0,0"
               id="path13" />
          </g>
        </g>
      </g>
      <g
         fill="#fcee21"
         fill-opacity="1"
         id="g19">
        <g
           transform="translate(65.181934,107.73789)"
           id="g18">
          <g
             id="g17">
            <path
               d="m 51.671875,-5.578125 c -0.15625,0.085937 -0.726563,0.246094 -1.703125,0.484375 -0.96875,0.242188 -2.183594,0.5625 -3.640625,0.96875 -1.449219,0.40625 -3.042969,0.855469 -4.78125,1.34375 -1.742187,0.480469 -3.4375,0.964844 -5.09375,1.453125 -1.65625,0.480469 -3.214844,0.945313 -4.671875,1.390625 -1.460938,0.445312 -2.589844,0.832031 -3.390625,1.15625 -0.25,-3.238281 -0.453125,-6.394531 -0.609375,-9.46875 -0.167969,-2.664062 -0.355469,-5.332031 -0.5625,-8 -0.199219,-2.664062 -0.335938,-4.890625 -0.40625,-6.671875 -0.730469,1.78125 -1.683594,4.007813 -2.859375,6.671875 -1.167969,2.667969 -2.320313,5.292969 -3.453125,7.875 -1.375,3 -2.792969,6.039062 -4.25,9.109375 L -4.359375,-1.09375 c 4.042969,-7.195312 8.082031,-14.3125 12.125,-21.34375 4.039063,-7.039062 7.757813,-14.398438 11.15625,-22.078125 -0.492187,-3.632813 -0.960937,-6.867187 -1.40625,-9.703125 -0.4375,-2.832031 -0.945313,-5.625 -1.515625,-8.375 -0.5625,-2.75 -1.167969,-5.515625 -1.8125,-8.296875 -0.648438,-2.789063 -1.292969,-5.96875 -1.9375,-9.53125 l 19.40625,-8 c 0.40625,3.804687 0.867188,8.011719 1.390625,12.625 0.53125,4.605469 1,8.84375 1.40625,12.71875 1.851563,-4.039063 3.691406,-8.082031 5.515625,-12.125 1.820312,-4.039063 3.703125,-8.046875 5.640625,-12.015625 l 17.59375,4.734375 c -2.105469,3.5625 -4.007813,6.839844 -5.703125,9.828125 -1.699219,2.992188 -3.320312,5.984375 -4.859375,8.984375 -1.53125,2.992187 -3.070313,6.042969 -4.609375,9.15625 -1.53125,3.105469 -3.1875,6.558594 -4.96875,10.359375 0.476562,3.5625 1.039062,6.921875 1.6875,10.078125 0.65625,3.148437 1.363281,6.257813 2.125,9.328125 0.769531,3.074219 1.539062,6.167969 2.3125,9.28125 0.769531,3.117188 1.597656,6.414062 2.484375,9.890625 z m 0,0"
               id="path16" />
          </g>
        </g>
      </g>
      <g
         fill="#fcee21"
         fill-opacity="1"
         id="g22">
        <g
           transform="translate(115.03711,107.73789)"
           id="g21">
          <g
             id="g20">
            <path
               d="m 33.484375,-3.875 c -2.511719,0 -5.164063,0.085938 -7.953125,0.25 -2.792969,0.15625 -5.605469,0.398438 -8.4375,0.71875 -2.824219,0.324219 -5.589844,0.75 -8.296875,1.28125 -2.710937,0.523438 -5.15625,1.148438 -7.34375,1.875 0.488281,-3.644531 1.054687,-7.691406 1.703125,-12.140625 0.644531,-4.445313 1.390625,-9.054687 2.234375,-13.828125 0.851563,-4.769531 1.703125,-9.578125 2.546875,-14.421875 0.851562,-4.851563 1.722656,-9.503906 2.609375,-13.953125 2.019531,-10.59375 4.164063,-21.390625 6.4375,-32.390625 l 21.21875,-2.796875 c -2.179687,9.386719 -4.277344,18.527344 -6.296875,27.421875 -0.898438,3.804687 -1.792969,7.746094 -2.6875,11.828125 -0.886719,4.085938 -1.734375,8.070312 -2.546875,11.953125 -0.804687,3.875 -1.527344,7.636719 -2.171875,11.28125 -0.648438,3.636719 -1.171875,6.867187 -1.578125,9.6875 2.019531,-0.15625 4.179687,-0.253906 6.484375,-0.296875 2.3125,-0.03906 4.359375,-0.0625 6.140625,-0.0625 0.07031,1.542969 0.1875,3.0625 0.34375,4.5625 0.164063,1.492188 0.347656,2.84375 0.546875,4.0625 0.207031,1.210938 0.367188,2.277344 0.484375,3.203125 0.125,0.929687 0.226563,1.554687 0.3125,1.875 -0.648437,0 -1.273437,-0.015625 -1.875,-0.046875 -0.605469,-0.039062 -1.230469,-0.0625 -1.875,-0.0625 z m 0,0"
               id="path19" />
          </g>
        </g>
      </g>
    </g>
  </g>
  <g
     transform="matrix(1.2872086,0,0,1.2872086,91.640422,76.104819)"
     id="g41">
    <g
       clip-path="url(#81c604eb43)"
       id="g40">
      <g
         fill="#000000"
         fill-opacity="1"
         id="g27">
        <g
           transform="translate(0.663588,60.948105)"
           id="g26">
          <g
             id="g25">
            <path
               d="m 2.8125,0.28125 5.21875,-48.734375 c 2.144531,-0.09375 4.164062,-0.3125 6.0625,-0.65625 1.90625,-0.34375 3.796875,-0.582031 5.671875,-0.71875 0,0.04297 -0.07031,0.511719 -0.203125,1.40625 -0.136719,0.886719 -0.320312,2.054687 -0.546875,3.5 -0.230469,1.4375 -0.484375,3.0625 -0.765625,4.875 -0.273438,1.804687 -0.671875,4.28125 -1.203125,7.4375 -0.523437,3.15625 -1.214844,7.527344 -2.078125,13.109375 H 16 c 1.1875,-4.207031 2.164062,-7.648438 2.9375,-10.328125 0.78125,-2.675781 1.410156,-4.847656 1.890625,-6.515625 0.476563,-1.664062 0.9375,-3.273438 1.375,-4.828125 0.4375,-1.5625 0.847656,-3.003906 1.234375,-4.328125 0.394531,-1.332031 0.707031,-2.457031 0.9375,-3.375 h 0.609375 c 0.820313,0 1.65625,-0.03906 2.5,-0.125 0.851563,-0.09375 1.65625,-0.195312 2.40625,-0.3125 0.757813,-0.113281 1.550781,-0.265625 2.375,-0.453125 -0.09375,0.417969 -0.199219,1.265625 -0.3125,2.546875 -0.117187,1.28125 -0.265625,2.828125 -0.453125,4.640625 -0.179688,1.804687 -0.359375,3.792969 -0.546875,5.96875 -0.179687,2.167969 -0.359375,4.292969 -0.546875,6.375 -0.179688,2.085937 -0.351562,4.0625 -0.515625,5.9375 -0.15625,1.875 -0.304687,3.476563 -0.4375,4.796875 H 30.6875 l 6.515625,-29.515625 c 1.550781,-0.226563 3.082031,-0.429687 4.59375,-0.609375 1.332031,-0.1875 2.707031,-0.367188 4.125,-0.546875 1.414063,-0.1875 2.675781,-0.394531 3.78125,-0.625 -0.6875,1.929687 -1.375,4.070313 -2.0625,6.421875 -0.6875,2.355469 -1.402344,4.839844 -2.140625,7.453125 -0.730469,2.605469 -1.429688,5.234375 -2.09375,7.890625 -0.65625,2.65625 -1.308594,5.21875 -1.953125,7.6875 -1.460937,5.855469 -2.875,11.871094 -4.25,18.046875 L 21.6875,-0.6875 l 3.015625,-26.5 h -0.8125 L 17.09375,-2.265625 Z m 0,0"
               id="path24" />
          </g>
        </g>
      </g>
      <g
         fill="#000000"
         fill-opacity="1"
         id="g30">
        <g
           transform="translate(41.505478,60.948105)"
           id="g29">
          <g
             id="g28">
            <path
               d="m 38.4375,-37.140625 c 0,3.761719 -0.402344,7.304687 -1.203125,10.625 -0.804687,3.3125 -1.867187,6.355469 -3.1875,9.125 -1.324219,2.761719 -2.871094,5.230469 -4.640625,7.40625 -1.761719,2.167969 -3.605469,4.023437 -5.53125,5.5625 -1.917969,1.53125 -3.859375,2.699219 -5.828125,3.5 -1.96875,0.804687 -3.84375,1.203125 -5.625,1.203125 -1.511719,0 -2.886719,-0.28515625 -4.125,-0.859375 C 7.066406,-1.148438 5.992188,-2 5.078125,-3.125 4.160156,-4.25 3.4375,-5.691406 2.90625,-7.453125 2.382812,-9.210938 2.125,-11.328125 2.125,-13.796875 c 0,-2.5625 0.316406,-5.257813 0.953125,-8.09375 0.644531,-2.84375 1.515625,-5.660156 2.609375,-8.453125 1.101562,-2.789062 2.457031,-5.441406 4.0625,-7.953125 1.601562,-2.519531 3.363281,-4.75 5.28125,-6.6875 1.925781,-1.945313 3.984375,-3.492187 6.171875,-4.640625 2.195313,-1.144531 4.488281,-1.71875 6.875,-1.71875 2.050781,0 3.753906,0.429688 5.109375,1.28125 1.351562,0.84375 2.40625,1.945312 3.15625,3.296875 0.757812,1.34375 1.296875,2.867187 1.609375,4.5625 0.320313,1.6875 0.484375,3.375 0.484375,5.0625 z m -26.078125,21.5625 c 0,0.5 0.08594,1.027344 0.265625,1.578125 0.1875,0.554688 0.4375,1.039062 0.75,1.453125 0.320312,0.40625 0.722656,0.761719 1.203125,1.0625 0.488281,0.292969 1.003906,0.4375 1.546875,0.4375 2.0625,0 3.894531,-0.707031 5.5,-2.125 1.601562,-1.425781 2.929688,-3.164063 3.984375,-5.21875 1.050781,-2.0625 1.859375,-4.257813 2.421875,-6.59375 0.570312,-2.332031 0.859375,-4.460937 0.859375,-6.390625 0,-0.539062 -0.03906,-1.128906 -0.109375,-1.765625 -0.0625,-0.644531 -0.199219,-1.242187 -0.40625,-1.796875 -0.199219,-0.550781 -0.515625,-1.019531 -0.953125,-1.40625 -0.4375,-0.382812 -1.023437,-0.578125 -1.75,-0.578125 -1.46875,0 -2.824219,0.367187 -4.0625,1.09375 -1.230469,0.730469 -2.339844,1.703125 -3.328125,2.921875 -0.980469,1.210938 -1.835938,2.578125 -2.5625,4.109375 -0.730469,1.53125 -1.359375,3.089844 -1.890625,4.671875 -0.523437,1.574219 -0.898437,3.117188 -1.125,4.625 -0.230469,1.511719 -0.34375,2.820312 -0.34375,3.921875 z m 0,0"
               id="path27" />
          </g>
        </g>
      </g>
      <g
         fill="#000000"
         fill-opacity="1"
         id="g33">
        <g
           transform="translate(75.345907,60.948105)"
           id="g32">
          <g
             id="g31">
            <path
               d="m 0.28125,0.0625 c 1.226562,-6.082031 2.414062,-12.03125 3.5625,-17.84375 0.414062,-2.46875 0.875,-5.039062 1.375,-7.71875 0.5,-2.675781 0.96875,-5.328125 1.40625,-7.953125 0.4375,-2.632813 0.847656,-5.175781 1.234375,-7.625 0.382813,-2.445313 0.691406,-4.679687 0.921875,-6.703125 2.613281,-0.820312 5.429688,-1.425781 8.453125,-1.8125 3.019531,-0.382812 6.015625,-0.578125 8.984375,-0.578125 1.78125,0 3.253906,0.210937 4.421875,0.625 1.164063,0.40625 2.082031,0.992187 2.75,1.75 0.664063,0.75 1.132813,1.632813 1.40625,2.640625 0.28125,1 0.421875,2.121094 0.421875,3.359375 0,1.824219 -0.324219,3.621094 -0.96875,5.390625 -0.636719,1.761719 -1.496094,3.433594 -2.578125,5.015625 -1.074219,1.574219 -2.308594,3.011719 -3.703125,4.3125 -1.398438,1.304687 -2.898438,2.367187 -4.5,3.1875 0.820312,1.835937 1.703125,3.839844 2.640625,6.015625 0.945313,2.167969 1.832031,4.234375 2.65625,6.203125 0.914063,2.292969 1.851563,4.578125 2.8125,6.859375 L 20.9375,-1.09375 c -0.917969,-3.15625 -1.742188,-6.128906 -2.46875,-8.921875 -0.324219,-1.144531 -0.648438,-2.320313 -0.96875,-3.53125 -0.324219,-1.21875 -0.621094,-2.363281 -0.890625,-3.4375 -0.273437,-1.082031 -0.5,-2.035156 -0.6875,-2.859375 -0.179687,-0.820312 -0.292969,-1.460938 -0.34375,-1.921875 l -0.890625,0.28125 c -0.273438,1.46875 -0.605469,3.257813 -1,5.359375 -0.386719,2.105469 -0.742188,4.140625 -1.0625,6.109375 -0.40625,2.335937 -0.820312,4.734375 -1.234375,7.203125 z m 16.125,-29.78125 c 0.863281,-0.09375 1.925781,-0.457031 3.1875,-1.09375 1.257812,-0.644531 2.460938,-1.410156 3.609375,-2.296875 1.144531,-0.894531 2.128906,-1.820313 2.953125,-2.78125 0.820312,-0.96875 1.234375,-1.816406 1.234375,-2.546875 0,-0.5 -0.164063,-0.898438 -0.484375,-1.203125 -0.324219,-0.300781 -0.773438,-0.53125 -1.34375,-0.6875 -0.574219,-0.15625 -1.203125,-0.253906 -1.890625,-0.296875 -0.679687,-0.05078 -1.386719,-0.07813 -2.125,-0.07813 -0.5,0 -1.015625,0.01172 -1.546875,0.03125 -0.523438,0.02344 -0.984375,0.03125 -1.390625,0.03125 z m 0,0"
               id="path30" />
          </g>
        </g>
      </g>
      <g
         fill="#000000"
         fill-opacity="1"
         id="g36">
        <g
           transform="translate(105.82289,60.948105)"
           id="g35">
          <g
             id="g34">
            <path
               d="m 18.9375,-2.203125 c -1.417969,0 -2.917969,0.046875 -4.5,0.140625 -1.574219,0.09375 -3.164062,0.234375 -4.765625,0.421875 -1.59375,0.179687 -3.164063,0.417969 -4.703125,0.71875 -1.53125,0.292969 -2.914062,0.648437 -4.140625,1.0625 0.269531,-2.0625 0.585937,-4.347656 0.953125,-6.859375 0.363281,-2.519531 0.785156,-5.128906 1.265625,-7.828125 0.488281,-2.707031 0.972656,-5.429687 1.453125,-8.171875 0.476562,-2.75 0.96875,-5.378906 1.46875,-7.890625 1.144531,-6 2.359375,-12.109375 3.640625,-18.328125 L 21.625,-50.515625 C 20.382812,-45.210938 19.191406,-40.039062 18.046875,-35 c -0.5,2.148438 -1.007813,4.375 -1.515625,6.6875 -0.5,2.3125 -0.980469,4.570312 -1.4375,6.765625 -0.449219,2.1875 -0.859375,4.3125 -1.234375,6.375 -0.367187,2.0625 -0.664063,3.898437 -0.890625,5.5 1.144531,-0.09375 2.367188,-0.148437 3.671875,-0.171875 1.3125,-0.03125 2.46875,-0.046875 3.46875,-0.046875 0.05078,0.875 0.117187,1.734375 0.203125,2.578125 0.09375,0.84375 0.195312,1.609375 0.3125,2.296875 0.113281,0.6875 0.203125,1.296875 0.265625,1.828125 0.07031,0.523438 0.132813,0.875 0.1875,1.0625 -0.367187,0 -0.71875,-0.00781 -1.0625,-0.03125 C 19.671875,-2.1875 19.3125,-2.203125 18.9375,-2.203125 Z m 0,0"
               id="path33" />
          </g>
        </g>
      </g>
      <g
         fill="#000000"
         fill-opacity="1"
         id="g39">
        <g
           transform="translate(126.55273,60.948105)"
           id="g38">
          <g
             id="g37">
            <path
               d="m 34.9375,-35.078125 c 0,2.386719 -0.34375,4.917969 -1.03125,7.59375 -0.6875,2.679687 -1.652344,5.335937 -2.890625,7.96875 -1.230469,2.625 -2.75,5.140625 -4.5625,7.546875 -1.804687,2.398438 -3.851563,4.5 -6.140625,6.3125 -2.28125,1.804688 -4.789062,3.257812 -7.515625,4.359375 C 10.078125,-0.203125 7.1875,0.34375 4.125,0.34375 3.476562,0.34375 2.832031,0.304688 2.1875,0.234375 1.550781,0.171875 0.914062,0.09375 0.28125,0 c 1.226562,-6.3125 2.4375,-12.46875 3.625,-18.46875 0.457031,-2.507812 0.9375,-5.125 1.4375,-7.84375 0.507812,-2.726562 0.992188,-5.421875 1.453125,-8.078125 C 7.253906,-37.046875 7.695312,-39.582031 8.125,-42 c 0.4375,-2.425781 0.796875,-4.625 1.078125,-6.59375 1.96875,-0.363281 3.957031,-0.707031 5.96875,-1.03125 2.007813,-0.320312 4.066406,-0.484375 6.171875,-0.484375 2.46875,0 4.5625,0.390625 6.28125,1.171875 1.71875,0.773438 3.113281,1.84375 4.1875,3.21875 1.070312,1.375 1.859375,2.980469 2.359375,4.8125 0.507813,1.824219 0.765625,3.765625 0.765625,5.828125 z m -16.203125,-5.34375 c -0.5,2.699219 -1.027344,5.28125 -1.578125,7.75 -0.542969,2.46875 -1.089844,4.964844 -1.640625,7.484375 -0.554687,2.511719 -1.105469,5.140625 -1.65625,7.890625 -0.542969,2.75 -1.070313,5.746094 -1.578125,8.984375 1.101562,-0.726562 2.164062,-1.71875 3.1875,-2.96875 1.03125,-1.257812 2.003906,-2.710938 2.921875,-4.359375 0.914063,-1.65625 1.75,-3.394531 2.5,-5.21875 0.757813,-1.832031 1.414063,-3.617187 1.96875,-5.359375 0.550781,-1.738281 0.972656,-3.363281 1.265625,-4.875 0.300781,-1.507812 0.453125,-2.8125 0.453125,-3.90625 0,-1.695312 -0.46875,-3.023438 -1.40625,-3.984375 -0.9375,-0.957031 -2.417969,-1.4375 -4.4375,-1.4375 z m 0,0"
               id="path36" />
          </g>
        </g>
      </g>
    </g>
  </g>
</svg>
